<svg id="svg" version="1.1" xmlns="http://www.w3.org/2000/svg" xmlns:xlink="http://www.w3.org/1999/xlink" width="400" height="400" viewBox="0, 0, 400,400"><g id="svgg"><path id="path0" d="M139.063 44.483 C 139.063 45.339,140.289 45.794,141.897 45.535 C 142.809 45.388,146.213 45.279,149.462 45.293 C 154.270 45.313,155.459 45.209,155.857 44.729 C 156.290 44.208,155.359 44.141,147.704 44.141 C 142.951 44.141,139.063 44.295,139.063 44.483 M133.594 44.874 C 133.594 45.719,134.783 46.211,135.754 45.769 C 137.198 45.111,136.919 44.531,135.156 44.531 C 134.297 44.531,133.594 44.686,133.594 44.874 M159.624 45.117 C 159.748 45.439,160.073 45.703,160.346 45.703 C 160.618 45.703,161.061 45.439,161.328 45.117 C 161.743 44.618,161.636 44.531,160.607 44.531 C 159.694 44.531,159.454 44.674,159.624 45.117 M130.564 45.410 C 130.805 46.141,132.287 46.229,132.555 45.528 C 132.734 45.062,132.513 44.922,131.596 44.922 C 130.817 44.922,130.459 45.091,130.564 45.410 M163.531 45.508 C 163.654 45.830,163.979 46.094,164.252 46.094 C 164.525 46.094,164.967 45.830,165.234 45.508 C 165.649 45.008,165.542 44.922,164.513 44.922 C 163.600 44.922,163.361 45.065,163.531 45.508 M127.344 45.689 C 127.344 46.366,128.743 46.882,129.237 46.388 C 129.979 45.646,129.755 45.313,128.516 45.313 C 127.871 45.313,127.344 45.482,127.344 45.689 M166.797 45.680 C 166.797 46.409,167.666 46.564,168.285 45.945 C 168.868 45.362,168.834 45.313,167.857 45.313 C 167.274 45.313,166.797 45.478,166.797 45.680 M120.898 46.710 C 118.535 47.221,115.371 48.013,113.867 48.470 C 112.363 48.927,110.518 49.479,109.766 49.697 C 109.014 49.914,107.783 50.353,107.031 50.672 C 105.712 51.231,105.147 51.461,102.832 52.379 C 102.241 52.614,101.108 53.141,100.313 53.551 C 99.519 53.961,98.608 54.297,98.290 54.297 C 97.972 54.297,97.445 54.564,97.119 54.890 C 96.793 55.216,95.365 56.004,93.945 56.641 C 92.526 57.278,91.098 58.065,90.771 58.392 C 90.445 58.718,89.940 58.984,89.648 58.984 C 89.357 58.984,88.883 59.204,88.596 59.473 C 88.309 59.741,87.418 60.296,86.615 60.706 C 85.813 61.116,85.156 61.599,85.156 61.780 C 85.156 61.961,84.893 62.109,84.570 62.109 C 84.248 62.109,83.984 62.285,83.984 62.500 C 83.984 62.715,83.721 62.891,83.398 62.891 C 83.076 62.891,82.813 63.066,82.813 63.281 C 82.813 63.496,82.549 63.672,82.227 63.672 C 81.904 63.672,81.641 63.848,81.641 64.063 C 81.641 64.277,81.377 64.453,81.055 64.453 C 80.732 64.453,80.469 64.629,80.469 64.844 C 80.469 65.059,80.200 65.234,79.871 65.234 C 79.542 65.234,79.171 65.498,79.048 65.820 C 78.924 66.143,78.572 66.406,78.266 66.406 C 77.960 66.406,77.609 66.670,77.485 66.992 C 77.361 67.314,77.010 67.578,76.704 67.578 C 76.398 67.578,76.046 67.842,75.923 68.164 C 75.799 68.486,75.454 68.750,75.157 68.750 C 74.859 68.750,74.396 69.102,74.128 69.531 C 73.860 69.961,73.431 70.313,73.175 70.313 C 72.919 70.313,72.334 70.840,71.875 71.484 C 71.416 72.129,70.798 72.656,70.501 72.656 C 70.204 72.656,69.492 73.271,68.919 74.023 C 68.345 74.775,67.736 75.391,67.565 75.391 C 67.120 75.391,56.641 85.839,56.641 86.283 C 56.641 86.487,55.937 87.210,55.078 87.891 C 54.219 88.571,53.516 89.344,53.516 89.608 C 53.516 89.872,52.988 90.477,52.344 90.954 C 51.699 91.430,51.172 92.072,51.172 92.381 C 51.172 92.689,50.820 93.129,50.391 93.359 C 49.961 93.589,49.609 94.029,49.609 94.336 C 49.609 94.643,49.258 95.083,48.828 95.313 C 48.398 95.542,48.047 95.946,48.047 96.209 C 48.047 96.472,47.695 96.907,47.266 97.175 C 46.836 97.443,46.484 97.819,46.484 98.009 C 46.484 98.199,45.957 98.919,45.313 99.609 C 44.668 100.299,44.141 101.109,44.141 101.408 C 44.141 101.708,43.959 101.953,43.738 101.953 C 43.516 101.953,43.226 102.236,43.094 102.582 C 42.961 102.927,42.446 103.649,41.948 104.186 C 41.451 104.722,40.819 105.670,40.544 106.292 C 40.269 106.913,39.911 107.422,39.748 107.422 C 39.586 107.422,39.453 107.686,39.453 108.008 C 39.453 108.330,39.277 108.594,39.063 108.594 C 38.848 108.594,38.672 108.777,38.672 109.001 C 38.672 109.225,38.320 109.785,37.891 110.246 C 37.461 110.707,37.109 111.315,37.109 111.597 C 37.109 111.879,36.934 112.109,36.719 112.109 C 36.504 112.109,36.328 112.373,36.328 112.695 C 36.328 113.018,36.180 113.281,35.999 113.281 C 35.818 113.281,35.335 113.938,34.925 114.740 C 34.515 115.543,33.960 116.434,33.691 116.721 C 33.423 117.008,33.203 117.494,33.203 117.801 C 33.203 118.108,33.039 118.359,32.839 118.359 C 32.638 118.359,32.351 118.755,32.200 119.238 C 32.049 119.722,31.794 120.205,31.632 120.313 C 29.866 121.486,17.969 145.979,17.969 148.442 C 17.969 151.016,45.942 162.618,63.477 167.318 C 77.702 171.131,97.967 174.311,100.546 173.136 C 101.066 172.899,103.436 172.822,106.468 172.942 C 149.248 174.642,186.239 153.504,216.342 110.156 L 220.547 104.102 222.871 104.220 C 261.389 106.189,299.892 129.306,320.404 162.780 C 323.344 167.578,322.830 167.352,328.757 166.443 C 333.752 165.677,340.834 164.221,341.467 163.830 C 343.017 162.872,337.378 138.853,333.588 130.273 C 333.209 129.414,332.457 127.568,331.917 126.172 C 329.782 120.645,323.529 108.577,322.641 108.268 C 322.434 108.197,322.266 107.889,322.266 107.585 C 322.266 107.280,322.090 107.031,321.875 107.031 C 321.660 107.031,321.484 106.768,321.484 106.445 C 321.484 106.123,321.133 105.508,320.703 105.078 C 320.273 104.648,319.922 104.121,319.922 103.906 C 319.922 103.691,319.746 103.516,319.531 103.516 C 319.316 103.516,319.141 103.271,319.141 102.971 C 319.141 102.672,318.877 102.326,318.555 102.202 C 318.232 102.079,317.969 101.708,317.969 101.379 C 317.969 101.050,317.793 100.781,317.578 100.781 C 317.363 100.781,317.188 100.524,317.188 100.209 C 317.188 99.894,316.836 99.449,316.406 99.219 C 315.977 98.989,315.625 98.555,315.625 98.255 C 315.625 97.955,315.098 97.334,314.453 96.875 C 313.809 96.416,313.281 95.879,313.281 95.681 C 313.281 95.201,305.173 87.109,304.692 87.109 C 304.485 87.109,304.027 86.670,303.675 86.133 C 303.323 85.596,302.810 85.156,302.536 85.156 C 302.261 85.156,301.936 84.893,301.812 84.570 C 301.688 84.248,301.337 83.984,301.031 83.984 C 300.725 83.984,300.373 83.721,300.249 83.398 C 300.126 83.076,299.755 82.813,299.426 82.813 C 299.097 82.813,298.828 82.637,298.828 82.422 C 298.828 82.207,298.645 82.031,298.421 82.031 C 298.197 82.031,297.630 81.673,297.159 81.235 C 296.689 80.797,295.906 80.338,295.418 80.216 C 294.930 80.094,294.531 79.852,294.531 79.680 C 294.531 79.413,286.924 75.556,284.570 74.631 C 284.141 74.462,283.350 74.132,282.813 73.898 C 280.255 72.784,272.665 70.526,268.765 69.720 C 261.344 68.184,249.066 66.989,250.391 67.931 C 250.713 68.160,250.811 68.350,250.609 68.353 C 250.407 68.357,250.583 68.617,251.000 68.933 C 252.135 69.792,255.462 69.729,255.494 68.848 C 255.514 68.291,255.580 68.317,255.850 68.984 C 256.112 69.633,256.654 69.859,258.462 70.070 C 263.362 70.642,264.262 70.801,264.381 71.115 C 264.448 71.294,264.756 71.344,265.065 71.225 C 266.040 70.851,275.000 73.179,275.000 73.806 C 275.000 73.975,275.659 74.115,276.465 74.119 C 278.363 74.127,284.527 76.679,284.701 77.528 C 284.795 77.991,284.965 78.055,285.319 77.761 C 285.951 77.237,289.874 79.133,290.122 80.082 C 290.236 80.517,290.621 80.709,291.242 80.641 C 293.053 80.443,292.155 84.593,289.673 87.891 C 283.196 96.494,277.120 98.049,269.535 93.045 C 263.620 89.143,259.128 88.481,254.080 90.769 C 249.503 92.844,243.970 99.872,243.173 104.625 C 242.921 106.126,242.792 106.291,242.050 106.069 C 241.588 105.931,240.547 105.716,239.737 105.591 C 238.926 105.466,238.173 105.219,238.064 105.042 C 237.955 104.866,237.608 104.821,237.292 104.942 C 236.935 105.079,236.719 104.925,236.719 104.534 C 236.719 103.820,236.114 103.695,235.723 104.329 C 235.571 104.574,235.030 104.642,234.430 104.490 C 233.863 104.347,232.344 104.142,231.055 104.034 C 229.663 103.918,228.529 103.605,228.262 103.265 C 227.909 102.814,227.777 102.801,227.644 103.202 C 227.520 103.573,226.455 103.711,223.709 103.711 L 219.943 103.711 216.124 109.382 C 209.558 119.131,207.230 121.808,205.079 122.080 C 203.454 122.286,203.359 122.395,203.359 124.059 C 203.359 125.281,203.263 125.412,202.504 125.221 C 201.767 125.036,201.611 125.210,201.378 126.468 C 201.070 128.138,199.810 129.688,198.760 129.688 C 198.281 129.688,198.047 129.976,198.047 130.568 C 198.047 131.624,195.873 133.854,195.572 133.107 C 195.456 132.821,195.361 132.911,195.343 133.324 C 195.326 133.712,195.168 133.941,194.992 133.832 C 194.594 133.586,193.359 134.980,193.359 135.675 C 193.359 136.200,190.789 138.672,190.242 138.672 C 190.073 138.672,189.800 139.067,189.635 139.551 C 189.363 140.348,189.320 140.311,189.173 139.153 C 189.085 138.450,188.847 137.977,188.647 138.102 C 188.446 138.226,188.281 138.053,188.281 137.718 C 188.281 137.383,188.086 137.109,187.848 137.109 C 187.334 137.109,187.755 139.188,188.310 139.388 C 188.781 139.558,188.782 141.016,188.311 141.016 C 188.113 141.016,187.423 141.543,186.779 142.188 C 185.462 143.505,184.766 143.680,184.766 142.695 C 184.766 142.166,184.667 142.130,184.281 142.516 C 183.894 142.903,183.909 143.071,184.353 143.346 C 184.822 143.636,184.827 143.791,184.384 144.325 C 183.967 144.828,183.792 144.854,183.537 144.452 C 183.304 144.086,183.205 144.162,183.178 144.727 C 183.158 145.156,183.053 145.288,182.944 145.020 C 182.553 144.049,181.538 144.472,181.739 145.522 C 181.960 146.678,181.061 147.347,179.750 147.005 C 179.046 146.820,178.864 146.989,178.659 148.015 C 178.406 149.278,177.403 150.083,175.993 150.155 C 175.498 150.180,175.151 150.506,175.079 151.013 C 174.975 151.740,172.425 153.586,171.593 153.535 C 170.021 153.440,168.750 154.068,168.750 154.939 C 168.750 155.915,167.471 156.720,166.504 156.352 C 166.235 156.250,166.016 156.449,166.016 156.794 C 166.016 157.139,165.752 157.422,165.430 157.422 C 165.107 157.422,164.844 157.598,164.844 157.813 C 164.844 158.583,164.113 158.185,163.948 157.324 C 163.811 156.614,163.763 156.670,163.698 157.617 C 163.627 158.640,163.574 158.690,163.281 158.008 C 162.984 157.316,162.942 157.349,162.918 158.301 C 162.892 159.326,162.566 159.558,161.382 159.394 C 161.090 159.354,160.512 159.685,160.098 160.129 C 159.238 161.052,158.725 161.154,158.483 160.449 C 158.391 160.181,158.362 160.272,158.420 160.652 C 158.526 161.350,156.851 162.500,155.728 162.500 C 154.431 162.500,150.012 156.822,149.899 155.010 C 149.868 154.510,149.688 153.995,149.499 153.864 C 149.310 153.733,148.721 151.887,148.189 149.762 C 145.013 137.078,149.564 128.415,161.402 124.608 C 171.370 121.401,177.248 113.303,176.427 103.906 C 175.331 91.365,170.498 83.705,161.755 80.650 C 157.155 79.043,154.505 79.250,141.022 82.271 C 130.762 84.569,129.167 84.832,126.539 84.656 C 118.810 84.140,112.297 78.707,110.317 71.125 C 109.329 67.339,109.118 67.202,106.009 68.317 C 100.849 70.167,97.282 68.955,95.526 64.753 C 94.219 61.624,95.605 57.405,98.469 55.795 C 99.311 55.322,100.000 54.780,100.000 54.593 C 100.000 54.405,100.144 54.340,100.320 54.448 C 100.495 54.557,101.594 54.188,102.761 53.629 C 103.928 53.070,105.078 52.571,105.316 52.521 C 106.433 52.284,111.963 50.271,112.341 49.963 C 112.575 49.772,112.911 49.746,113.087 49.906 C 113.263 50.065,113.262 49.946,113.084 49.641 C 112.850 49.236,112.927 49.149,113.369 49.319 C 113.902 49.523,119.110 48.428,120.703 47.776 C 121.025 47.644,121.597 47.574,121.973 47.621 C 122.349 47.667,122.656 47.515,122.656 47.283 C 122.656 47.032,123.036 46.956,123.590 47.095 C 124.104 47.223,124.627 47.162,124.753 46.959 C 124.878 46.756,125.425 46.674,125.967 46.778 C 126.692 46.916,126.953 46.799,126.953 46.335 C 126.953 45.515,126.211 45.561,120.898 46.710 M169.781 46.289 C 169.904 46.611,170.141 46.875,170.306 46.875 C 170.472 46.875,170.826 46.611,171.094 46.289 C 171.505 45.794,171.423 45.703,170.568 45.703 C 169.829 45.703,169.616 45.861,169.781 46.289 M172.515 46.680 C 172.639 47.002,172.787 47.266,172.846 47.266 C 172.904 47.266,173.170 47.002,173.438 46.680 C 173.843 46.191,173.789 46.094,173.107 46.094 C 172.541 46.094,172.359 46.274,172.515 46.680 M174.468 47.070 C 174.592 47.393,174.828 47.656,174.994 47.656 C 175.160 47.656,175.514 47.393,175.781 47.070 C 176.192 46.575,176.111 46.484,175.255 46.484 C 174.516 46.484,174.304 46.642,174.468 47.070 M182.670 48.631 C 182.794 48.952,183.095 49.088,183.342 48.933 C 183.588 48.779,184.141 48.689,184.570 48.734 L 185.352 48.815 184.570 48.459 C 183.317 47.886,182.416 47.968,182.670 48.631 M186.043 49.316 C 186.137 49.585,186.490 49.756,186.827 49.697 C 187.165 49.637,187.548 49.761,187.678 49.973 C 187.809 50.184,188.156 50.264,188.450 50.152 C 188.743 50.039,189.095 50.127,189.231 50.347 C 189.492 50.769,190.625 50.507,190.625 50.025 C 190.625 49.769,187.200 48.828,186.266 48.828 C 186.049 48.828,185.949 49.048,186.043 49.316 M193.599 51.343 C 193.718 51.651,194.064 51.808,194.368 51.691 C 195.183 51.379,195.042 50.781,194.153 50.781 C 193.645 50.781,193.457 50.972,193.599 51.343 M196.321 52.091 C 196.447 52.420,196.897 52.547,197.516 52.429 C 198.244 52.290,198.369 52.150,197.985 51.907 C 197.153 51.379,196.093 51.496,196.321 52.091 M200.249 53.320 C 200.461 53.873,201.134 54.080,202.246 53.935 C 202.515 53.901,202.734 54.050,202.734 54.267 C 202.734 54.485,202.998 54.562,203.320 54.438 C 203.643 54.314,203.906 54.391,203.906 54.609 C 203.906 54.827,204.285 54.906,204.749 54.785 C 205.321 54.635,205.502 54.708,205.314 55.012 C 205.135 55.302,205.251 55.378,205.644 55.227 C 205.977 55.099,206.250 55.189,206.250 55.427 C 206.250 55.665,206.382 55.831,206.543 55.796 C 206.704 55.762,207.333 55.938,207.941 56.189 C 208.658 56.485,209.276 56.516,209.699 56.278 C 210.466 55.848,210.867 56.037,205.099 54.103 C 200.535 52.572,199.925 52.474,200.249 53.320 M210.677 56.793 C 210.677 57.120,210.843 57.285,211.046 57.159 C 211.249 57.034,211.532 57.120,211.675 57.351 C 211.836 57.612,212.148 57.639,212.499 57.422 C 213.185 56.998,213.004 56.782,211.685 56.451 C 210.932 56.262,210.677 56.348,210.677 56.793 M213.802 57.991 C 213.802 58.303,213.936 58.476,214.101 58.375 C 214.265 58.273,214.499 58.353,214.622 58.551 C 214.744 58.749,215.194 58.820,215.621 58.708 C 216.097 58.584,216.484 58.732,216.622 59.092 C 216.758 59.446,217.148 59.601,217.603 59.482 C 218.019 59.373,218.359 59.474,218.359 59.706 C 218.359 59.939,218.732 60.328,219.188 60.572 C 219.842 60.922,219.952 60.911,219.710 60.519 C 219.488 60.160,219.598 60.098,220.108 60.294 C 220.705 60.523,220.737 60.473,220.320 59.970 C 220.048 59.643,219.582 59.375,219.283 59.375 C 218.984 59.375,218.434 59.214,218.061 59.017 C 215.143 57.478,213.802 57.155,213.802 57.991 M221.484 61.096 C 221.484 61.452,221.758 61.574,222.261 61.442 C 222.689 61.331,222.942 61.084,222.824 60.893 C 222.483 60.341,221.484 60.493,221.484 61.096 M224.219 62.207 C 224.219 62.476,224.643 62.695,225.162 62.695 C 225.872 62.695,226.005 62.575,225.700 62.207 C 225.477 61.938,225.053 61.719,224.757 61.719 C 224.461 61.719,224.219 61.938,224.219 62.207 M227.587 63.852 C 227.827 64.476,229.183 65.057,230.020 64.894 C 230.310 64.838,230.432 64.977,230.292 65.204 C 230.141 65.448,230.268 65.528,230.604 65.399 C 231.403 65.092,235.253 67.105,234.915 67.652 C 234.758 67.906,234.820 67.981,235.063 67.831 C 235.292 67.689,235.551 67.786,235.638 68.046 C 235.750 68.383,237.355 68.529,241.237 68.555 C 244.231 68.575,247.339 68.738,248.145 68.917 C 249.549 69.229,249.609 69.200,249.609 68.215 L 249.609 67.188 242.708 67.188 L 235.807 67.188 232.152 65.234 C 228.366 63.211,227.207 62.861,227.587 63.852 M139.063 70.265 C 139.063 70.741,139.312 71.094,139.648 71.094 C 139.971 71.094,140.234 70.939,140.234 70.751 C 140.234 70.562,139.971 70.189,139.648 69.922 C 139.159 69.516,139.063 69.572,139.063 70.265 M143.750 70.313 C 143.750 70.527,144.014 70.703,144.336 70.703 C 144.658 70.703,144.922 70.527,144.922 70.313 C 144.922 70.098,144.658 69.922,144.336 69.922 C 144.014 69.922,143.750 70.098,143.750 70.313 M215.234 76.908 C 215.234 77.097,215.596 77.347,216.038 77.463 C 216.697 77.635,216.759 77.573,216.381 77.118 C 215.865 76.496,215.234 76.381,215.234 76.908 M185.449 127.613 C 184.637 127.825,184.530 128.516,185.310 128.516 C 185.609 128.516,185.955 128.252,186.079 127.930 C 186.202 127.607,186.265 127.364,186.218 127.389 C 186.171 127.414,185.825 127.515,185.449 127.613 M184.772 141.309 C 184.789 142.165,185.535 142.733,185.541 141.895 C 185.544 141.411,185.371 141.016,185.156 141.016 C 184.941 141.016,184.768 141.147,184.772 141.309 M156.686 160.254 C 156.656 160.968,156.837 161.328,157.227 161.328 C 157.612 161.328,157.803 160.961,157.785 160.254 C 157.761 159.319,157.717 159.281,157.447 159.961 L 157.137 160.742 156.934 159.961 C 156.776 159.354,156.721 159.420,156.686 160.254 " stroke="none" fill="#2ea27d" fill-rule="evenodd"></path><path id="path1" d="M220.237 104.593 C 219.918 104.967,217.935 107.780,215.830 110.843 C 186.781 153.128,148.934 174.629,106.515 172.944 C 99.023 172.646,100.008 171.649,94.457 185.156 C 87.257 202.677,84.822 229.676,88.482 251.406 C 100.330 321.752,168.554 368.172,239.119 353.901 C 309.279 339.712,353.369 269.921,336.719 199.408 C 334.600 190.434,328.585 174.015,326.919 172.656 C 326.788 172.549,326.200 171.385,325.614 170.070 C 325.028 168.756,324.078 167.333,323.504 166.908 C 322.930 166.483,321.555 164.659,320.448 162.853 C 301.057 131.206,267.159 109.529,229.883 104.939 C 221.043 103.851,220.876 103.845,220.237 104.593 " stroke="none" fill="#f2ae4f" fill-rule="evenodd"></path><path id="path2" d="M136.719 44.930 C 136.719 45.870,134.803 46.248,133.951 45.477 C 133.178 44.778,133.105 44.774,132.636 45.415 C 132.058 46.207,131.212 46.290,130.543 45.621 C 130.174 45.252,129.936 45.342,129.452 46.033 C 128.869 46.864,128.777 46.880,127.893 46.301 C 127.032 45.737,126.953 45.739,126.953 46.326 C 126.953 46.800,126.697 46.917,125.967 46.778 C 125.425 46.674,124.878 46.756,124.753 46.959 C 124.627 47.162,124.104 47.223,123.590 47.095 C 123.036 46.956,122.656 47.032,122.656 47.283 C 122.656 47.515,122.349 47.667,121.973 47.621 C 121.597 47.574,121.025 47.644,120.703 47.776 C 119.110 48.428,113.902 49.523,113.369 49.319 C 112.927 49.149,112.850 49.236,113.084 49.641 C 113.262 49.946,113.263 50.065,113.087 49.906 C 112.911 49.746,112.575 49.772,112.341 49.963 C 111.963 50.271,106.433 52.284,105.316 52.521 C 105.078 52.571,103.928 53.070,102.761 53.629 C 101.594 54.188,100.495 54.557,100.320 54.448 C 100.144 54.340,100.000 54.405,100.000 54.593 C 100.000 54.780,99.311 55.322,98.469 55.795 C 95.605 57.405,94.219 61.624,95.526 64.753 C 97.282 68.955,100.849 70.167,106.009 68.317 C 109.118 67.202,109.329 67.339,110.317 71.125 C 112.297 78.707,118.810 84.140,126.539 84.656 C 129.167 84.832,130.762 84.569,141.022 82.271 C 154.505 79.250,157.155 79.043,161.755 80.650 C 170.498 83.705,175.331 91.365,176.427 103.906 C 177.248 113.303,171.370 121.401,161.402 124.608 C 149.564 128.415,145.013 137.078,148.189 149.762 C 148.721 151.887,149.310 153.733,149.499 153.864 C 149.688 153.995,149.868 154.510,149.899 155.010 C 150.012 156.822,154.431 162.500,155.728 162.500 C 156.851 162.500,158.526 161.350,158.420 160.652 C 158.362 160.272,158.391 160.181,158.483 160.449 C 158.725 161.154,159.238 161.052,160.098 160.129 C 160.512 159.685,161.090 159.354,161.382 159.394 C 162.566 159.558,162.892 159.326,162.918 158.301 C 162.942 157.349,162.984 157.316,163.281 158.008 C 163.574 158.690,163.627 158.640,163.698 157.617 C 163.763 156.670,163.811 156.614,163.948 157.324 C 164.113 158.185,164.844 158.583,164.844 157.813 C 164.844 157.598,165.107 157.422,165.430 157.422 C 165.752 157.422,166.016 157.139,166.016 156.794 C 166.016 156.449,166.235 156.250,166.504 156.352 C 167.471 156.720,168.750 155.915,168.750 154.939 C 168.750 154.089,170.202 153.397,171.875 153.450 C 172.630 153.473,174.983 151.684,175.079 151.013 C 175.151 150.506,175.498 150.180,175.993 150.155 C 177.403 150.083,178.406 149.278,178.659 148.015 C 178.864 146.989,179.046 146.820,179.750 147.005 C 181.061 147.347,181.960 146.678,181.739 145.522 C 181.538 144.472,182.553 144.049,182.944 145.020 C 183.053 145.288,183.158 145.156,183.178 144.727 C 183.205 144.162,183.304 144.086,183.537 144.452 C 183.792 144.854,183.967 144.828,184.384 144.325 C 184.827 143.791,184.822 143.636,184.353 143.346 C 183.909 143.071,183.894 142.903,184.281 142.516 C 184.667 142.130,184.766 142.166,184.766 142.695 C 184.766 143.680,185.462 143.505,186.779 142.188 C 187.423 141.543,188.113 141.016,188.311 141.016 C 188.782 141.016,188.781 139.558,188.310 139.388 C 187.755 139.188,187.334 137.109,187.848 137.109 C 188.086 137.109,188.281 137.383,188.281 137.718 C 188.281 138.053,188.446 138.226,188.647 138.102 C 188.847 137.977,189.085 138.450,189.173 139.153 C 189.320 140.311,189.363 140.348,189.635 139.551 C 189.800 139.067,190.073 138.672,190.242 138.672 C 190.789 138.672,193.359 136.200,193.359 135.675 C 193.359 134.980,194.594 133.586,194.992 133.832 C 195.168 133.941,195.326 133.712,195.343 133.324 C 195.361 132.911,195.456 132.821,195.572 133.107 C 195.873 133.854,198.047 131.624,198.047 130.568 C 198.047 129.976,198.281 129.688,198.760 129.688 C 199.810 129.688,201.070 128.138,201.378 126.468 C 201.611 125.210,201.767 125.036,202.504 125.221 C 203.263 125.412,203.359 125.281,203.359 124.059 C 203.359 122.395,203.454 122.286,205.079 122.080 C 207.230 121.808,209.558 119.131,216.124 109.382 L 219.943 103.711 223.709 103.711 C 226.455 103.711,227.520 103.573,227.644 103.202 C 227.777 102.801,227.909 102.814,228.262 103.265 C 228.529 103.605,229.663 103.918,231.055 104.034 C 232.344 104.142,233.863 104.347,234.430 104.490 C 235.030 104.642,235.571 104.574,235.723 104.329 C 236.114 103.695,236.719 103.820,236.719 104.534 C 236.719 104.925,236.935 105.079,237.292 104.942 C 237.608 104.821,237.955 104.866,238.064 105.042 C 238.173 105.219,238.926 105.466,239.737 105.591 C 240.547 105.716,241.588 105.931,242.050 106.069 C 242.792 106.291,242.921 106.126,243.173 104.625 C 243.970 99.872,249.503 92.844,254.080 90.769 C 259.128 88.481,263.620 89.143,269.535 93.045 C 277.120 98.049,283.196 96.494,289.673 87.891 C 292.155 84.593,293.053 80.443,291.242 80.641 C 290.621 80.709,290.236 80.517,290.122 80.082 C 289.874 79.133,285.951 77.237,285.319 77.761 C 284.965 78.055,284.795 77.991,284.701 77.528 C 284.527 76.679,278.363 74.127,276.465 74.119 C 275.659 74.115,275.000 73.975,275.000 73.806 C 275.000 73.179,266.040 70.851,265.065 71.225 C 264.756 71.344,264.448 71.294,264.381 71.115 C 264.262 70.801,263.362 70.642,258.462 70.070 C 256.654 69.859,256.112 69.633,255.850 68.984 C 255.580 68.317,255.514 68.291,255.494 68.848 C 255.473 69.401,255.116 69.529,253.613 69.519 C 251.910 69.507,250.117 68.763,250.609 68.271 C 250.722 68.158,250.544 67.961,250.212 67.834 C 249.787 67.671,249.609 67.844,249.609 68.423 C 249.609 69.168,249.475 69.213,248.145 68.917 C 247.339 68.738,244.231 68.575,241.237 68.555 C 237.355 68.529,235.750 68.383,235.638 68.046 C 235.551 67.786,235.329 67.667,235.143 67.781 C 234.958 67.896,234.873 67.643,234.955 67.220 C 235.065 66.648,234.943 66.513,234.479 66.690 C 234.069 66.848,233.952 66.775,234.136 66.477 C 234.324 66.172,234.197 66.108,233.745 66.282 C 233.294 66.455,233.166 66.391,233.355 66.086 C 233.543 65.782,233.416 65.718,232.964 65.891 C 232.512 66.065,232.385 66.001,232.573 65.696 C 232.762 65.391,232.634 65.327,232.183 65.501 C 231.729 65.675,231.603 65.611,231.794 65.302 C 232.004 64.963,231.814 64.946,231.055 65.234 C 230.342 65.506,230.111 65.497,230.290 65.207 C 230.432 64.979,230.310 64.838,230.020 64.894 C 229.265 65.041,227.734 64.467,227.734 64.036 C 227.734 63.205,227.646 63.066,226.846 62.638 C 226.315 62.354,225.683 62.315,225.114 62.531 C 224.376 62.811,224.219 62.741,224.219 62.132 C 224.219 61.226,223.529 60.944,222.363 61.375 C 221.650 61.638,221.484 61.562,221.484 60.970 C 221.484 60.568,221.265 60.159,220.996 60.060 C 220.281 59.797,219.487 60.160,219.771 60.619 C 219.908 60.841,219.637 60.813,219.157 60.556 C 218.674 60.297,218.389 59.861,218.506 59.557 C 218.668 59.133,218.508 59.096,217.755 59.382 C 216.841 59.730,216.595 59.516,216.747 58.507 C 216.770 58.352,216.358 58.389,215.830 58.590 C 215.221 58.822,214.785 58.815,214.635 58.572 C 214.505 58.362,214.208 58.308,213.975 58.452 C 213.742 58.597,213.655 58.547,213.781 58.342 C 214.263 57.563,213.431 56.924,212.550 57.395 C 211.928 57.728,211.719 57.728,211.719 57.394 C 211.719 57.148,211.457 57.048,211.137 57.171 C 210.818 57.293,210.575 57.268,210.598 57.115 C 210.748 56.105,210.514 55.850,209.791 56.236 C 209.260 56.521,208.710 56.506,207.936 56.187 C 207.331 55.937,206.704 55.762,206.543 55.796 C 206.382 55.831,206.250 55.665,206.250 55.427 C 206.250 55.189,205.977 55.099,205.644 55.227 C 205.251 55.378,205.135 55.302,205.314 55.012 C 205.502 54.708,205.321 54.635,204.749 54.785 C 204.285 54.906,203.906 54.827,203.906 54.609 C 203.906 54.391,203.643 54.314,203.320 54.438 C 202.998 54.562,202.734 54.485,202.734 54.267 C 202.734 54.050,202.515 53.901,202.246 53.935 C 201.038 54.092,200.425 53.849,200.194 53.119 C 200.056 52.687,199.793 52.426,199.608 52.540 C 199.424 52.654,199.170 52.581,199.045 52.379 C 198.910 52.160,198.350 52.145,197.667 52.341 C 196.718 52.613,196.477 52.544,196.287 51.947 C 196.070 51.262,195.096 51.168,194.167 51.741 C 193.969 51.864,193.703 51.640,193.577 51.243 C 193.451 50.846,193.131 50.502,192.865 50.479 C 192.600 50.455,192.031 50.361,191.602 50.269 C 191.172 50.177,190.523 50.255,190.160 50.442 C 189.750 50.654,189.403 50.625,189.242 50.365 C 189.100 50.135,188.743 50.039,188.450 50.152 C 188.156 50.264,187.804 50.176,187.668 49.956 C 187.532 49.736,187.178 49.649,186.881 49.764 C 186.583 49.878,186.175 49.663,185.974 49.288 C 185.618 48.622,183.889 48.403,183.339 48.953 C 183.195 49.096,182.825 48.853,182.517 48.412 C 181.978 47.644,181.932 47.640,181.378 48.317 C 181.061 48.706,180.901 48.822,181.023 48.576 C 181.244 48.131,180.202 47.458,179.532 47.614 C 179.338 47.658,178.899 47.576,178.555 47.430 C 177.530 46.996,176.011 46.974,175.476 47.386 C 175.123 47.659,174.814 47.554,174.428 47.031 C 173.998 46.448,173.778 46.390,173.399 46.764 C 173.021 47.137,172.811 47.095,172.420 46.568 C 171.993 45.993,171.803 45.971,171.082 46.412 C 170.355 46.856,170.169 46.830,169.715 46.217 C 169.252 45.594,169.082 45.573,168.314 46.042 C 167.557 46.506,167.378 46.493,166.978 45.945 C 166.423 45.185,165.881 45.149,164.817 45.801 C 164.144 46.213,163.959 46.182,163.631 45.605 C 163.175 44.804,162.035 44.722,160.911 45.410 C 160.237 45.822,160.052 45.792,159.725 45.215 C 159.291 44.451,156.095 44.224,155.661 44.926 C 155.513 45.166,153.162 45.309,149.681 45.290 C 146.526 45.273,143.059 45.377,141.975 45.521 C 140.418 45.728,139.896 45.651,139.486 45.157 C 138.917 44.471,136.719 44.291,136.719 44.930 M140.234 70.751 C 140.234 70.939,139.971 71.094,139.648 71.094 C 139.312 71.094,139.063 70.741,139.063 70.265 C 139.063 69.572,139.159 69.516,139.648 69.922 C 139.971 70.189,140.234 70.562,140.234 70.751 M144.922 70.313 C 144.922 70.527,144.658 70.703,144.336 70.703 C 144.014 70.703,143.750 70.527,143.750 70.313 C 143.750 70.098,144.014 69.922,144.336 69.922 C 144.658 69.922,144.922 70.098,144.922 70.313 M216.381 77.118 C 216.759 77.573,216.697 77.635,216.038 77.463 C 215.596 77.347,215.234 77.097,215.234 76.908 C 215.234 76.381,215.865 76.496,216.381 77.118 M62.109 80.273 C 60.509 81.885,59.287 83.203,59.395 83.203 C 59.502 83.203,60.899 81.885,62.500 80.273 C 64.101 78.662,65.322 77.344,65.215 77.344 C 65.107 77.344,63.710 78.662,62.109 80.273 M308.984 91.211 C 310.151 92.393,311.194 93.359,311.301 93.359 C 311.409 93.359,310.542 92.393,309.375 91.211 C 308.208 90.029,307.165 89.063,307.058 89.063 C 306.951 89.063,307.817 90.029,308.984 91.211 M186.079 127.930 C 185.955 128.252,185.609 128.516,185.310 128.516 C 184.530 128.516,184.637 127.825,185.449 127.613 C 185.825 127.515,186.171 127.414,186.218 127.389 C 186.265 127.364,186.202 127.607,186.079 127.930 M185.541 141.895 C 185.536 142.605,185.462 142.661,185.156 142.188 C 184.667 141.430,184.667 141.016,185.156 141.016 C 185.371 141.016,185.544 141.411,185.541 141.895 M157.447 159.961 C 157.717 159.281,157.761 159.319,157.785 160.254 C 157.803 160.961,157.612 161.328,157.227 161.328 C 156.837 161.328,156.656 160.968,156.686 160.254 C 156.721 159.420,156.776 159.354,156.934 159.961 L 157.137 160.742 157.447 159.961 " stroke="none" fill="#09946f" fill-rule="evenodd"></path></g></svg>